<svg xmlns="http://www.w3.org/2000/svg" viewBox="0 0 64 64" fill="none" stroke="#1f6feb" stroke-linecap="square" stroke-linejoin="miter">
  <!-- Outer cog ring -->
  <circle cx="32" cy="32" r="29" stroke-width="1.5"/>
  <!-- Teeth (simplified 12 notches for favicon clarity) -->
  <g stroke-width="1.5">
    <line x1="32" y1="1" x2="32" y2="5"/>
    <line x1="47.5" y1="4.5" x2="45.5" y2="8"/>
    <line x1="59.5" y1="16.5" x2="56" y2="18.5"/>
    <line x1="63" y1="32" x2="59" y2="32"/>
    <line x1="59.5" y1="47.5" x2="56" y2="45.5"/>
    <line x1="47.5" y1="59.5" x2="45.5" y2="56"/>
    <line x1="32" y1="63" x2="32" y2="59"/>
    <line x1="16.5" y1="59.5" x2="18.5" y2="56"/>
    <line x1="4.5" y1="47.5" x2="8" y2="45.5"/>
    <line x1="1" y1="32" x2="5" y2="32"/>
    <line x1="4.5" y1="16.5" x2="8" y2="18.5"/>
    <line x1="16.5" y1="4.5" x2="18.5" y2="8"/>
  </g>
  <!-- Inner circle -->
  <circle cx="32" cy="32" r="23" stroke-width="1.5"/>
  <!-- V glyph -->
  <path d="M22 22 L32 42 L42 22" stroke-width="2.5"/>
</svg>
